<svg width="30" height="30" viewBox="0 0 30 30" fill="none" xmlns="http://www.w3.org/2000/svg">
<circle cx="15" cy="15" r="15" fill="#FF4521" fill-opacity="0.17"/>
<path d="M18.6465 8.125H20.5126C20.7126 8.125 20.9044 8.20402 21.0458 8.34467C21.1872 8.48532 21.2666 8.67609 21.2666 8.875V21.25C21.2666 21.4489 21.1872 21.6397 21.0458 21.7803C20.9044 21.921 20.7126 22 20.5126 22H9.95664C9.75666 22 9.56488 21.921 9.42348 21.7803C9.28208 21.6397 9.20264 21.4489 9.20264 21.25V8.875C9.20264 8.67609 9.28208 8.48532 9.42348 8.34467C9.56488 8.20402 9.75666 8.125 9.95664 8.125H12.5956V9.25H17.8736V8.125H18.6465Z" stroke="#030919" stroke-width="1.5" stroke-linejoin="round"/>
<path d="M12.5957 7H17.8737V9.25H12.5957V7Z" stroke="#030919" stroke-width="1.5" stroke-linecap="round" stroke-linejoin="round"/>
<path d="M16.3656 12.625L13.3496 15.6254H17.1211L14.1036 18.6254" stroke="#030919" stroke-width="1.5" stroke-linecap="round" stroke-linejoin="round"/>
</svg>
