<svg width="16" height="20" viewBox="0 0 16 20" fill="none" xmlns="http://www.w3.org/2000/svg">
<g clip-path="url(#clip0_213_1340)">
<path d="M2.5 0.666664C2.334 0.666664 2.17 0.685509 2.013 0.723197L2.207 1.87742C2.30352 1.85522 2.40165 1.84417 2.5 1.84444H2.958V0.666664H2.5ZM4.792 0.666664H3.875V1.84444H4.792V0.666664ZM6.625 0.666664H5.708V1.84444H6.625V0.666664ZM8.458 0.666664H7.542V1.84444H8.458V0.666664ZM10.292 0.666664H9.375V1.84444H10.292V0.666664ZM12.125 0.666664H11.208V1.84444H12.125V0.666664ZM13.5 0.666664H13.042V1.84444H13.5C13.6 1.84444 13.699 1.85622 13.793 1.8786L13.987 0.723197C13.8266 0.685716 13.6635 0.666781 13.5 0.666664V0.666664ZM15.579 1.974C15.3962 1.653 15.1618 1.3773 14.889 1.16251L14.333 2.14124C14.497 2.2708 14.638 2.43686 14.748 2.63002L15.578 1.97518L15.579 1.974ZM1.11 1.16251C0.837453 1.37777 0.603373 1.65386 0.421 1.97518L1.252 2.63002C1.362 2.43686 1.503 2.2708 1.667 2.14124L1.11 1.16369V1.16251ZM16 3.61111C16 3.4156 15.984 3.22244 15.952 3.03753L14.972 3.26602C14.99 3.37673 15 3.49215 15 3.61111V4.15053H16V3.61111ZM0.048 3.03753C0.0161758 3.22643 9.94507e-05 3.41853 0 3.61111L0 4.15053H1V3.61111C1 3.49333 1.01 3.37673 1.029 3.26602L0.048 3.03753V3.03753ZM0 5.23055V6.31057H1V5.23055H0ZM16 6.31057V5.23055H15V6.31057H16ZM0 7.38942V8.46944H1V7.38942H0ZM16 8.46944V7.38942H15V8.46944H16ZM0 9.54946V10.6283H1V9.54946H0ZM15 10.6283H16V9.54946H15V10.6283ZM0 11.7083V12.7884H1V11.7083H0ZM16 12.7884V11.7083H15V12.7884H16ZM0 13.8672V14.9472H1V13.8672H0ZM16 14.9472V13.8672H15V14.9472H16ZM0 16.0272V16.5667C0 16.7622 0.016 16.9553 0.048 17.1402L1.028 16.9118C1.00915 16.7981 0.99977 16.6825 1 16.5667V16.0272H0ZM16 16.5667V16.0272H15V16.5667C15 16.6844 14.99 16.801 14.971 16.9118L15.952 17.1402C15.984 16.9542 16 16.7634 16 16.5667ZM0.421 18.2038C0.604 18.5241 0.838 18.7997 1.111 19.0153L1.667 18.0365C1.50286 17.9071 1.36186 17.7411 1.252 17.5478L0.422 18.2026L0.421 18.2038ZM14.89 19.0153C15.162 18.7997 15.396 18.5241 15.579 18.2026L14.748 17.5478C14.638 17.7409 14.497 17.907 14.333 18.0365L14.889 19.0141L14.89 19.0153ZM2.013 19.4546C2.171 19.4923 2.333 19.5111 2.5 19.5111H2.958V18.3333H2.5C2.4 18.3333 2.301 18.3216 2.207 18.2992L2.013 19.4546V19.4546ZM13.5 19.5111C13.666 19.5111 13.83 19.4923 13.987 19.4546L13.793 18.3004C13.6965 18.3226 13.5983 18.3336 13.5 18.3333H13.042V19.5111H13.5ZM3.875 19.5111H4.792V18.3333H3.875V19.5111ZM5.708 19.5111H6.625V18.3333H5.708V19.5111ZM7.542 18.3333V19.5111H8.458V18.3333H7.542ZM9.375 19.5111H10.292V18.3333H9.375V19.5111ZM11.208 19.5111H12.125V18.3333H11.208V19.5111ZM8.5 5.96666C8.5 5.81048 8.44732 5.66069 8.35355 5.55026C8.25979 5.43982 8.13261 5.37778 8 5.37778C7.86739 5.37778 7.74021 5.43982 7.64645 5.55026C7.55268 5.66069 7.5 5.81048 7.5 5.96666V9.5H4.5C4.36739 9.5 4.24021 9.56204 4.14645 9.67248C4.05268 9.78292 4 9.9327 4 10.0889C4 10.2451 4.05268 10.3949 4.14645 10.5053C4.24021 10.6157 4.36739 10.6778 4.5 10.6778H7.5V14.2111C7.5 14.3673 7.55268 14.5171 7.64645 14.6275C7.74021 14.738 7.86739 14.8 8 14.8C8.13261 14.8 8.25979 14.738 8.35355 14.6275C8.44732 14.5171 8.5 14.3673 8.5 14.2111V10.6778H11.5C11.6326 10.6778 11.7598 10.6157 11.8536 10.5053C11.9473 10.3949 12 10.2451 12 10.0889C12 9.9327 11.9473 9.78292 11.8536 9.67248C11.7598 9.56204 11.6326 9.5 11.5 9.5H8.5V5.96666Z" fill="#030919"/>
</g>
<defs>
<clipPath id="clip0_213_1340">
<rect width="16" height="18.8444" fill="white" transform="translate(0 0.666664)"/>
</clipPath>
</defs>
</svg>
