<svg width="90" height="90" viewBox="0 0 90 90" fill="none" xmlns="http://www.w3.org/2000/svg">
<circle cx="45" cy="45" r="45" fill="#2FA94E" fill-opacity="0.03"/>
<path d="M63.8404 26.1824C63.6233 25.9665 63.3489 25.8171 63.0496 25.7516C62.7503 25.6861 62.4386 25.7073 62.1509 25.8128L26.7527 38.6692C26.4475 38.7849 26.1846 38.9906 25.9992 39.259C25.8137 39.5273 25.7144 39.8457 25.7144 40.1718C25.7144 40.498 25.8137 40.8163 25.9992 41.0847C26.1846 41.3531 26.4475 41.5588 26.7527 41.6744L42.1992 47.8456L48.3778 63.2733C48.4939 63.5649 48.6929 63.8161 48.9502 63.996C49.2075 64.1759 49.512 64.2766 49.8259 64.2858C50.1511 64.2791 50.4666 64.1742 50.7309 63.9849C50.9951 63.7955 51.1957 63.5306 51.3062 63.2251L64.1783 27.8698C64.2879 27.5855 64.3144 27.2759 64.2545 26.9771C64.1947 26.6784 64.0511 26.4027 63.8404 26.1824ZM49.8259 58.179L45.3368 46.9295L53.044 39.2317L50.7752 36.9658L43.0037 44.7279L31.805 40.1799L60.011 30.0072L49.8259 58.179Z" fill="#2FA94E" fill-opacity="0.21"/>
</svg>
