<svg width="18" height="16" viewBox="0 0 18 16" fill="none" xmlns="http://www.w3.org/2000/svg">
<path d="M17.1818 0H0.818182C0.601187 0 0.393079 0.0842854 0.23964 0.234315C0.086201 0.384344 0 0.587827 0 0.8V7.2C0 7.41217 0.086201 7.61566 0.23964 7.76569C0.393079 7.91571 0.601187 8 0.818182 8H3.27273V15.2C3.27273 15.4122 3.35893 15.6157 3.51237 15.7657C3.66581 15.9157 3.87391 16 4.09091 16H13.9091C14.1261 16 14.3342 15.9157 14.4876 15.7657C14.6411 15.6157 14.7273 15.4122 14.7273 15.2V8H17.1818C17.3988 8 17.6069 7.91571 17.7604 7.76569C17.9138 7.61566 18 7.41217 18 7.2V0.8C18 0.587827 17.9138 0.384344 17.7604 0.234315C17.6069 0.0842854 17.3988 0 17.1818 0ZM4.90909 14.4V12.8C5.34308 12.8 5.7593 12.9686 6.06617 13.2686C6.37305 13.5687 6.54545 13.9757 6.54545 14.4H4.90909ZM13.0909 14.4H11.4545C11.4545 13.9757 11.6269 13.5687 11.9338 13.2686C12.2407 12.9686 12.6569 12.8 13.0909 12.8V14.4ZM13.0909 11.2C12.2229 11.2 11.3905 11.5371 10.7767 12.1373C10.163 12.7374 9.81818 13.5513 9.81818 14.4H8.18182C8.18182 13.5513 7.83701 12.7374 7.22326 12.1373C6.6095 11.5371 5.77707 11.2 4.90909 11.2V4.8H13.0909V11.2ZM16.3636 6.4H14.7273V4C14.7273 3.78783 14.6411 3.58434 14.4876 3.43431C14.3342 3.28429 14.1261 3.2 13.9091 3.2H4.09091C3.87391 3.2 3.66581 3.28429 3.51237 3.43431C3.35893 3.58434 3.27273 3.78783 3.27273 4V6.4H1.63636V1.6H16.3636V6.4ZM9 10.4C9.48546 10.4 9.96002 10.2592 10.3637 9.99553C10.7673 9.73181 11.0819 9.35698 11.2677 8.91844C11.4535 8.4799 11.5021 7.99734 11.4074 7.53178C11.3127 7.06623 11.0789 6.63859 10.7356 6.30294C10.3924 5.9673 9.95499 5.73872 9.47886 5.64612C9.00272 5.55351 8.5092 5.60104 8.06069 5.78269C7.61218 5.96434 7.22883 6.27195 6.95912 6.66663C6.68941 7.06131 6.54545 7.52532 6.54545 8C6.54545 8.63652 6.80406 9.24697 7.26437 9.69706C7.72469 10.1471 8.34901 10.4 9 10.4ZM9 7.2C9.16182 7.2 9.32001 7.24692 9.45456 7.33482C9.58911 7.42273 9.69398 7.54767 9.7559 7.69385C9.81783 7.84003 9.83403 8.00089 9.80246 8.15607C9.77089 8.31126 9.69297 8.4538 9.57854 8.56569C9.46412 8.67757 9.31833 8.75376 9.15962 8.78463C9.00091 8.8155 8.8364 8.79965 8.6869 8.7391C8.53739 8.67855 8.40961 8.57602 8.31971 8.44446C8.2298 8.3129 8.18182 8.15823 8.18182 8C8.18182 7.78783 8.26802 7.58434 8.42146 7.43431C8.5749 7.28429 8.783 7.2 9 7.2Z" fill="#F7F7F7"/>
</svg>
