<svg width="82" height="71" viewBox="0 0 82 71" fill="none" xmlns="http://www.w3.org/2000/svg">
<path d="M17.7083 37.5001L25 45.8334L32.2917 37.5001H39.5833C41.8812 37.5001 43.75 35.6313 43.75 33.3334V8.33342C43.75 6.0355 41.8812 4.16675 39.5833 4.16675H10.4167C8.11875 4.16675 6.25 6.0355 6.25 8.33342V33.3334C6.25 35.6313 8.11875 37.5001 10.4167 37.5001H17.7083ZM14.5833 14.5834H35.4167V18.7501H14.5833V14.5834ZM14.5833 22.9167H29.1667V27.0834H14.5833V22.9167Z" fill="#C9CCD3"/>
<path d="M67 21H47C38.7275 21 32 27.7275 32 36V68.5C32 69.163 32.2634 69.7989 32.7322 70.2678C33.2011 70.7366 33.837 71 34.5 71H67C75.2725 71 82 64.2725 82 56V36C82 27.7275 75.2725 21 67 21ZM62 53.5H44.5V48.5H62V53.5ZM69.5 43.5H44.5V38.5H69.5V43.5Z" fill="#E5E5E5"/>
</svg>
