<svg width="40" height="40" viewBox="0 0 40 40" fill="none" xmlns="http://www.w3.org/2000/svg">
<circle cx="20" cy="20" r="20" fill="#FF6600" fill-opacity="0.1"/>
<path d="M28.3736 11.6365C28.2771 11.5405 28.1552 11.4741 28.0222 11.445C27.8892 11.4159 27.7506 11.4253 27.6227 11.4722L11.8902 17.1862C11.7545 17.2376 11.6377 17.329 11.5553 17.4483C11.4729 17.5676 11.4287 17.7091 11.4287 17.854C11.4287 17.999 11.4729 18.1405 11.5553 18.2597C11.6377 18.379 11.7545 18.4704 11.8902 18.5218L18.7553 21.2646L21.5014 28.1213C21.553 28.2509 21.6414 28.3626 21.7558 28.4425C21.8701 28.5225 22.0054 28.5673 22.145 28.5713C22.2895 28.5684 22.4297 28.5217 22.5472 28.4376C22.6646 28.3534 22.7538 28.2357 22.8029 28.0999L28.5238 12.3864C28.5725 12.2601 28.5843 12.1225 28.5577 11.9897C28.5311 11.8569 28.4673 11.7344 28.3736 11.6365ZM22.145 25.8572L20.1498 20.8574L23.5752 17.4362L22.5669 16.4291L19.1129 19.8789L14.1357 17.8576L26.6716 13.3364L22.145 25.8572Z" fill="#FF6600"/>
</svg>
