<svg width="115" height="140" viewBox="0 0 115 140" fill="none" xmlns="http://www.w3.org/2000/svg">
<g filter="url(#filter0_d_47_21)">
<circle cx="45" cy="66" r="20" fill="white"/>
</g>
<path d="M37.0835 60.2448C37.0835 59.6719 37.5481 59.2083 38.12 59.2083H46.4637C46.7386 59.2083 47.0022 59.3175 47.1966 59.5119C47.391 59.7063 47.5002 59.9699 47.5002 60.2448C47.5002 60.5197 47.391 60.7833 47.1966 60.9777C47.0022 61.172 46.7386 61.2812 46.4637 61.2812H38.12C37.8451 61.2812 37.5814 61.172 37.3871 60.9777C37.1927 60.7833 37.0835 60.5197 37.0835 60.2448Z" fill="#030919"/>
<path d="M37.0835 66.5C37.0835 65.9271 37.5481 65.4636 38.12 65.4636H56.8804C57.1553 65.4636 57.4189 65.5728 57.6133 65.7671C57.8076 65.9615 57.9168 66.2251 57.9168 66.5C57.9168 66.7749 57.8076 67.0385 57.6133 67.2329C57.4189 67.4273 57.1553 67.5365 56.8804 67.5365H38.12C37.8451 67.5365 37.5814 67.4273 37.3871 67.2329C37.1927 67.0385 37.0835 66.7749 37.0835 66.5Z" fill="#030919"/>
<path d="M38.12 71.7186C37.8451 71.7186 37.5814 71.8278 37.3871 72.0222C37.1927 72.2166 37.0835 72.4802 37.0835 72.7551C37.0835 73.03 37.1927 73.2936 37.3871 73.488C37.5814 73.6823 37.8451 73.7915 38.12 73.7915H50.6304C50.9053 73.7915 51.1689 73.6823 51.3633 73.488C51.5576 73.2936 51.6668 73.03 51.6668 72.7551C51.6668 72.4802 51.5576 72.2166 51.3633 72.0222C51.1689 71.8278 50.9053 71.7186 50.6304 71.7186H38.12Z" fill="#030919"/>
<defs>
<filter id="filter0_d_47_21" x="-25" y="0" width="140" height="140" filterUnits="userSpaceOnUse" color-interpolation-filters="sRGB">
<feFlood flood-opacity="0" result="BackgroundImageFix"/>
<feColorMatrix in="SourceAlpha" type="matrix" values="0 0 0 0 0 0 0 0 0 0 0 0 0 0 0 0 0 0 127 0" result="hardAlpha"/>
<feOffset dy="4"/>
<feGaussianBlur stdDeviation="25"/>
<feComposite in2="hardAlpha" operator="out"/>
<feColorMatrix type="matrix" values="0 0 0 0 0 0 0 0 0 0 0 0 0 0 0 0 0 0 0.17 0"/>
<feBlend mode="normal" in2="BackgroundImageFix" result="effect1_dropShadow_47_21"/>
<feBlend mode="normal" in="SourceGraphic" in2="effect1_dropShadow_47_21" result="shape"/>
</filter>
</defs>
</svg>
