<svg width="30" height="30" viewBox="0 0 30 30" fill="none" xmlns="http://www.w3.org/2000/svg">
<circle cx="15" cy="15" r="15" fill="#C9CCD3"/>
<path d="M22.6905 21.3784C23.717 20.1444 24.431 18.6814 24.772 17.1133C25.113 15.5452 25.071 13.9181 24.6495 12.3697C24.2281 10.8213 23.4396 9.39702 22.3507 8.21747C21.2619 7.03791 19.9047 6.13774 18.394 5.59311C16.8834 5.04847 15.2637 4.8754 13.6719 5.08852C12.0801 5.30164 10.5631 5.89469 9.24926 6.81749C7.93539 7.7403 6.86329 8.96572 6.12365 10.3901C5.38402 11.8145 4.9986 13.3959 5 15.0005C5.00054 17.3333 5.82327 19.5913 7.32381 21.3784L7.30951 21.3906C7.35955 21.4506 7.41673 21.502 7.4682 21.5613C7.53253 21.6348 7.60186 21.7041 7.66834 21.7755C7.86848 21.9927 8.07434 22.2012 8.29021 22.3969C8.35597 22.4569 8.42388 22.5126 8.49035 22.5697C8.71909 22.7669 8.95426 22.954 9.198 23.1283C9.22945 23.1497 9.25805 23.1775 9.2895 23.1997V23.1911C10.9636 24.3682 12.9608 25 15.0079 25C17.055 25 19.0521 24.3682 20.7262 23.1911V23.1997C20.7577 23.1775 20.7856 23.1497 20.8177 23.1283C21.0608 22.9533 21.2966 22.7669 21.5254 22.5697C21.5919 22.5126 21.6598 22.4562 21.7255 22.3969C21.9414 22.2005 22.1473 21.9927 22.3474 21.7755C22.4139 21.7041 22.4825 21.6348 22.5475 21.5613C22.5983 21.502 22.6562 21.4506 22.7062 21.3899L22.6905 21.3784ZM15.0072 9.28687C15.6433 9.28687 16.2652 9.47536 16.7942 9.82852C17.3232 10.1817 17.7354 10.6836 17.9789 11.2709C18.2223 11.8582 18.286 12.5044 18.1619 13.1278C18.0378 13.7513 17.7315 14.3239 17.2816 14.7734C16.8318 15.2229 16.2586 15.529 15.6347 15.653C15.0107 15.777 14.364 15.7134 13.7762 15.4701C13.1885 15.2269 12.6861 14.8149 12.3327 14.2864C11.9792 13.7579 11.7906 13.1365 11.7906 12.5008C11.7906 11.6484 12.1295 10.8309 12.7327 10.2282C13.3359 9.62548 14.1541 9.28687 15.0072 9.28687ZM9.29378 21.3784C9.30618 20.4407 9.6876 19.5455 10.3555 18.8865C11.0234 18.2276 11.9241 17.8579 12.8628 17.8574H17.1515C18.0902 17.8579 18.9909 18.2276 19.6588 18.8865C20.3267 19.5455 20.7081 20.4407 20.7205 21.3784C19.1529 22.79 17.1174 23.5711 15.0072 23.5711C12.8969 23.5711 10.8614 22.79 9.29378 21.3784Z" fill="white"/>
</svg>
