<svg width="242" height="166" viewBox="0 0 242 166" fill="none" xmlns="http://www.w3.org/2000/svg">
<path d="M158.917 37.9167C158.917 31.9583 154.042 27.0833 148.084 27.0833H131.834V37.9167H148.084V52.2708L129.234 75.8333H110.167V48.75H88.5002C76.5293 48.75 66.8335 58.4458 66.8335 70.4167V86.6667H77.6668C77.6668 95.6583 84.9252 102.917 93.9168 102.917C102.909 102.917 110.167 95.6583 110.167 86.6667H134.434L158.917 56.0625V37.9167ZM93.9168 92.0833C90.9377 92.0833 88.5002 89.6458 88.5002 86.6667H99.3335C99.3335 89.6458 96.896 92.0833 93.9168 92.0833Z" fill="#FF6600"/>
<path d="M83.0835 32.5H110.167V43.3333H83.0835V32.5ZM158.917 70.4167C149.925 70.4167 142.667 77.675 142.667 86.6667C142.667 95.6583 149.925 102.917 158.917 102.917C167.909 102.917 175.167 95.6583 175.167 86.6667C175.167 77.675 167.909 70.4167 158.917 70.4167ZM158.917 92.0833C155.938 92.0833 153.5 89.6458 153.5 86.6667C153.5 83.6875 155.938 81.25 158.917 81.25C161.896 81.25 164.334 83.6875 164.334 86.6667C164.334 89.6458 161.896 92.0833 158.917 92.0833Z" fill="#F7F7F7"/>
<path d="M21.48 156L9.08 142.84V156H2.84V127.52H9.08V140.04L21.04 127.52H28.48L15.24 141.12L29 156H21.48ZM49.9475 135.72V156H43.9875V153C43.3742 154.04 42.5075 154.853 41.3875 155.44C40.2675 156.027 39.0008 156.32 37.5875 156.32C35.8275 156.32 34.2675 155.893 32.9075 155.04C31.5742 154.187 30.5208 152.973 29.7475 151.4C29.0008 149.8 28.6275 147.96 28.6275 145.88C28.6275 143.8 29.0008 141.947 29.7475 140.32C30.5208 138.693 31.5875 137.44 32.9475 136.56C34.3075 135.653 35.8542 135.2 37.5875 135.2C39.0008 135.2 40.2675 135.507 41.3875 136.12C42.5075 136.733 43.3742 137.56 43.9875 138.6V135.72H49.9475ZM39.3475 151.72C40.8408 151.72 41.9875 151.213 42.7875 150.2C43.5875 149.187 43.9875 147.72 43.9875 145.8C43.9875 143.88 43.5875 142.413 42.7875 141.4C41.9875 140.36 40.8408 139.84 39.3475 139.84C37.8542 139.84 36.6942 140.373 35.8675 141.44C35.0408 142.507 34.6275 143.987 34.6275 145.88C34.6275 147.773 35.0275 149.227 35.8275 150.24C36.6542 151.227 37.8275 151.72 39.3475 151.72ZM75.1428 135.72V156H69.1828V153C68.5695 154.04 67.7028 154.853 66.5828 155.44C65.4628 156.027 64.1961 156.32 62.7828 156.32C61.0228 156.32 59.4628 155.893 58.1028 155.04C56.7695 154.187 55.7161 152.973 54.9428 151.4C54.1961 149.8 53.8228 147.96 53.8228 145.88C53.8228 143.8 54.1961 141.947 54.9428 140.32C55.7161 138.693 56.7828 137.44 58.1428 136.56C59.5028 135.653 61.0495 135.2 62.7828 135.2C64.1961 135.2 65.4628 135.507 66.5828 136.12C67.7028 136.733 68.5695 137.56 69.1828 138.6V135.72H75.1428ZM64.5428 151.72C66.0361 151.72 67.1828 151.213 67.9828 150.2C68.7828 149.187 69.1828 147.72 69.1828 145.8C69.1828 143.88 68.7828 142.413 67.9828 141.4C67.1828 140.36 66.0361 139.84 64.5428 139.84C63.0495 139.84 61.8895 140.373 61.0628 141.44C60.2361 142.507 59.8228 143.987 59.8228 145.88C59.8228 147.773 60.2228 149.227 61.0228 150.24C61.8495 151.227 63.0228 151.72 64.5428 151.72ZM92.5381 135.2C97.3381 135.2 99.7381 138.04 99.7381 143.72V156H93.6981V144C93.6981 142.587 93.4315 141.56 92.8981 140.92C92.3915 140.253 91.5781 139.92 90.4581 139.92C89.1248 139.92 88.0581 140.347 87.2581 141.2C86.4581 142.053 86.0581 143.2 86.0581 144.64V156H80.0181V141.52C80.0181 139.36 79.9115 137.427 79.6981 135.72H85.3781L85.7781 138.92C86.4981 137.72 87.4315 136.8 88.5781 136.16C89.7515 135.52 91.0715 135.2 92.5381 135.2ZM124.869 135.72V156H118.909V153C118.296 154.04 117.429 154.853 116.309 155.44C115.189 156.027 113.923 156.32 112.509 156.32C110.749 156.32 109.189 155.893 107.829 155.04C106.496 154.187 105.443 152.973 104.669 151.4C103.923 149.8 103.549 147.96 103.549 145.88C103.549 143.8 103.923 141.947 104.669 140.32C105.443 138.693 106.509 137.44 107.869 136.56C109.229 135.653 110.776 135.2 112.509 135.2C113.923 135.2 115.189 135.507 116.309 136.12C117.429 136.733 118.296 137.56 118.909 138.6V135.72H124.869ZM114.269 151.72C115.763 151.72 116.909 151.213 117.709 150.2C118.509 149.187 118.909 147.72 118.909 145.8C118.909 143.88 118.509 142.413 117.709 141.4C116.909 140.36 115.763 139.84 114.269 139.84C112.776 139.84 111.616 140.373 110.789 141.44C109.963 142.507 109.549 143.987 109.549 145.88C109.549 147.773 109.949 149.227 110.749 150.24C111.576 151.227 112.749 151.72 114.269 151.72Z" fill="#FF6600"/>
<path d="M165.435 156H158.835L155.195 146.52C154.901 145.773 154.448 145.253 153.835 144.96C153.248 144.667 152.501 144.52 151.595 144.52H147.555V156H141.395V127.52H154.075C157.381 127.52 159.888 128.24 161.595 129.68C163.301 131.12 164.155 133.187 164.155 135.88C164.155 137.773 163.648 139.4 162.635 140.76C161.648 142.12 160.221 143.093 158.355 143.68C160.035 144.027 161.248 145.187 161.995 147.16L165.435 156ZM153.155 139.76C154.941 139.76 156.248 139.467 157.075 138.88C157.901 138.267 158.315 137.32 158.315 136.04C158.315 134.76 157.901 133.827 157.075 133.24C156.248 132.627 154.941 132.32 153.155 132.32H147.475V139.76H153.155ZM169.315 135.72H175.355V156H169.315V135.72ZM175.555 126.2V131.88H169.115V126.2H175.555ZM200.612 126.56V156H194.652V153C194.038 154.04 193.172 154.853 192.052 155.44C190.932 156.027 189.665 156.32 188.252 156.32C186.518 156.32 184.972 155.88 183.612 155C182.252 154.093 181.185 152.84 180.412 151.24C179.665 149.613 179.292 147.76 179.292 145.68C179.292 143.6 179.665 141.773 180.412 140.2C181.185 138.6 182.238 137.373 183.572 136.52C184.932 135.64 186.492 135.2 188.252 135.2C189.612 135.2 190.852 135.493 191.972 136.08C193.092 136.64 193.958 137.427 194.572 138.44V126.56H200.612ZM190.012 151.72C191.505 151.72 192.652 151.213 193.452 150.2C194.252 149.16 194.652 147.68 194.652 145.76C194.652 143.867 194.238 142.413 193.412 141.4C192.612 140.36 191.478 139.84 190.012 139.84C188.518 139.84 187.358 140.347 186.532 141.36C185.705 142.373 185.292 143.813 185.292 145.68C185.292 147.6 185.705 149.093 186.532 150.16C187.358 151.2 188.518 151.72 190.012 151.72ZM223.687 146.36H210.327C210.434 148.253 210.927 149.64 211.807 150.52C212.687 151.373 213.994 151.8 215.727 151.8C216.767 151.8 217.807 151.627 218.847 151.28C219.887 150.933 220.847 150.427 221.727 149.76L223.327 153.84C222.367 154.613 221.167 155.227 219.727 155.68C218.314 156.107 216.887 156.32 215.447 156.32C212.034 156.32 209.354 155.387 207.407 153.52C205.46 151.627 204.487 149.053 204.487 145.8C204.487 143.747 204.9 141.92 205.727 140.32C206.58 138.693 207.767 137.44 209.287 136.56C210.807 135.653 212.527 135.2 214.447 135.2C217.3 135.2 219.554 136.133 221.207 138C222.86 139.84 223.687 142.333 223.687 145.48V146.36ZM214.607 139.44C213.46 139.44 212.527 139.773 211.807 140.44C211.114 141.107 210.66 142.08 210.447 143.36H218.487C218.167 140.747 216.874 139.44 214.607 139.44ZM239.279 135.24C240.132 135.24 240.852 135.373 241.439 135.64L241.399 141.16C240.412 140.707 239.426 140.48 238.439 140.48C236.839 140.48 235.612 140.92 234.759 141.8C233.932 142.653 233.519 143.853 233.519 145.4V156H227.479V141.52C227.479 139.36 227.372 137.427 227.159 135.72H232.839L233.239 139.2C233.746 137.92 234.532 136.947 235.599 136.28C236.692 135.587 237.919 135.24 239.279 135.24Z" fill="white"/>
</svg>
