<svg width="30" height="30" viewBox="0 0 30 30" fill="none" xmlns="http://www.w3.org/2000/svg">
<circle cx="15" cy="15" r="15" fill="#FF6600"/>
<path d="M8.00766 9.12225L8.71946 8.45908C9.38794 7.83733 10.4223 7.88269 11.139 8.56353L12.564 9.92113C13.1844 10.5122 13.4094 11.4371 13.1182 12.2078L12.309 14.3523C12.7998 15.193 13.4764 15.9326 14.337 16.5718C15.1615 17.1941 16.0925 17.6436 17.0749 17.8938L18.5677 16.4649C19.1345 15.9239 19.9905 15.8624 20.6917 16.3121L22.3274 17.3585C23.1437 17.8815 23.5214 18.9416 23.2109 19.8396L22.878 20.8023C22.5466 21.7603 21.7494 22.4157 20.7854 22.5213C18.5091 22.7719 15.8128 21.6722 12.6957 19.2226C9.57404 16.7692 7.74965 14.3119 7.22484 11.8538C7.00377 10.8195 7.30099 9.78012 8.00766 9.12225Z" fill="#F7F7F7"/>
</svg>
