<svg width="60" height="62" viewBox="0 0 60 62" fill="none" xmlns="http://www.w3.org/2000/svg">
<path d="M20.2124 42.4274H30.8002C30.7593 42.9102 30.7358 43.3989 30.7358 43.8906C30.7358 47.4052 32.0732 50.7999 34.4583 54.098C32.878 56.9044 31.0724 58.5198 29.2726 58.5198C25.7697 58.5198 22.2492 52.3919 20.3821 43.2907L20.2124 42.4303V42.4274Z" fill="#133040"/>
<path d="M19.5392 38.0377H31.8302C33.2699 34.3639 36.0045 31.3441 39.5179 29.5481V29.2613C39.5179 27.2538 39.4418 25.296 39.2955 23.4084H19.2494L19.1529 24.8365C18.8986 29.2398 19.0278 33.6568 19.5392 38.0377Z" fill="#FF6600"/>
<path d="M46.831 27.7952C51.3465 27.7952 55.4259 29.6534 58.3465 32.6472C58.7028 29.5653 58.5715 26.4465 57.9573 23.4055H43.7056L43.8168 25.3282C43.8607 26.2295 43.887 27.1426 43.9016 28.0615C44.8498 27.8859 45.8331 27.7952 46.831 27.7952Z" fill="#133040"/>
<path d="M3.12793 42.4303H15.7291C16.7944 48.5231 18.6058 53.7088 20.9733 57.3346C13.5329 55.1264 7.27014 50.061 3.55519 43.2468L3.12793 42.4303Z" fill="#FF6600"/>
<path d="M0.590528 23.4055H14.8422C14.5361 27.713 14.5684 32.0379 14.9388 36.3403L15.1056 38.0377H1.34262C-0.139746 33.3021 -0.399484 28.2685 0.587602 23.4055H0.590528Z" fill="#133040"/>
<path d="M37.8878 1.68267L37.5718 1.18518C41.9215 2.47618 45.9126 4.75827 49.2314 7.85214C52.5502 10.946 55.1063 14.7674 56.6989 19.0159H43.2666C42.3419 11.9457 40.466 5.8704 37.8878 1.68267Z" fill="#FF6600"/>
<path d="M20.6163 1.29346L20.9733 1.18518C18.3952 5.13586 16.4784 10.9273 15.46 17.7283L15.2785 19.0159H1.85205C3.42204 14.8262 5.92923 11.051 9.18196 7.97883C12.4347 4.90667 16.3468 2.61894 20.6193 1.29053L20.6163 1.29346Z" fill="#FF6600"/>
<path d="M29.2726 0C33.1325 0 37.0159 7.43899 38.6781 18.0941L38.8157 19.0159H19.7295C21.3127 7.86917 25.3043 0 29.2726 0Z" fill="#133040"/>
<path d="M60 43.8906C60 40.398 58.6125 37.0484 56.1429 34.5788C53.6732 32.1091 50.3237 30.7217 46.831 30.7217C43.3384 30.7217 39.9889 32.1091 37.5192 34.5788C35.0495 37.0484 33.6621 40.398 33.6621 43.8906C33.6621 49.3426 37.8176 55.0549 45.9531 61.1566C46.2064 61.3465 46.5145 61.4492 46.831 61.4492C47.1476 61.4492 47.4557 61.3465 47.709 61.1566C55.8445 55.0549 60 49.3426 60 43.8906ZM42.4414 43.8906C42.4414 42.7264 42.9039 41.6099 43.7271 40.7867C44.5503 39.9635 45.6668 39.501 46.831 39.501C47.9953 39.501 49.1118 39.9635 49.935 40.7867C50.7582 41.6099 51.2207 42.7264 51.2207 43.8906C51.2207 45.0548 50.7582 46.1713 49.935 46.9946C49.1118 47.8178 47.9953 48.2803 46.831 48.2803C45.6668 48.2803 44.5503 47.8178 43.7271 46.9946C42.9039 46.1713 42.4414 45.0548 42.4414 43.8906Z" fill="#FF6600"/>
</svg>
