<svg width="45" height="45" viewBox="0 0 45 45" fill="none" xmlns="http://www.w3.org/2000/svg">
<circle cx="22.5" cy="22.5" r="22.5" fill="#DADADA" fill-opacity="0.3"/>
<path d="M34.0357 32.0677C35.5755 30.2165 36.6465 28.0221 37.158 25.67C37.6695 23.3178 37.6065 20.8772 36.9743 18.5545C36.3421 16.2319 35.1593 14.0955 33.5261 12.3262C31.8928 10.5569 29.8571 9.20662 27.5911 8.38966C25.3251 7.57271 22.8955 7.31309 20.5078 7.63277C18.1202 7.95245 15.8447 8.84203 13.8739 10.2262C11.9031 11.6105 10.2949 13.4486 9.18548 15.5851C8.07602 17.7217 7.4979 20.0938 7.50001 22.5008C7.50082 25.9999 8.7349 29.387 10.9857 32.0677L10.9643 32.0859C11.0393 32.1759 11.1251 32.253 11.2023 32.3419C11.2988 32.4523 11.4028 32.5562 11.5025 32.6633C11.8027 32.989 12.1115 33.3018 12.4353 33.5954C12.534 33.6853 12.6358 33.7689 12.7355 33.8546C13.0786 34.1503 13.4314 34.431 13.797 34.6924C13.8442 34.7245 13.8871 34.7663 13.9342 34.7995V34.7867C16.4454 36.5524 19.4411 37.5 22.5118 37.5C25.5825 37.5 28.5782 36.5524 31.0894 34.7867V34.7995C31.1365 34.7663 31.1783 34.7245 31.2266 34.6924C31.5911 34.4299 31.945 34.1503 32.2881 33.8546C32.3878 33.7689 32.4896 33.6843 32.5883 33.5954C32.9121 33.3007 33.2209 32.989 33.5211 32.6633C33.6208 32.5562 33.7237 32.4523 33.8213 32.3419C33.8974 32.253 33.9843 32.1759 34.0593 32.0848L34.0357 32.0677ZM22.5107 13.9303C23.465 13.9303 24.3978 14.213 25.1913 14.7428C25.9847 15.2725 26.6031 16.0254 26.9683 16.9063C27.3335 17.7872 27.4291 18.7566 27.2429 19.6917C27.0567 20.6269 26.5972 21.4859 25.9224 22.1601C25.2477 22.8343 24.3879 23.2935 23.452 23.4795C22.5161 23.6655 21.546 23.5701 20.6643 23.2052C19.7827 22.8403 19.0292 22.2224 18.499 21.4296C17.9688 20.6368 17.6859 19.7047 17.6859 18.7512C17.6859 17.4726 18.1942 16.2464 19.099 15.3423C20.0039 14.4382 21.2311 13.9303 22.5107 13.9303ZM13.9407 32.0677C13.9593 30.661 14.5314 29.3182 15.5333 28.3298C16.5351 27.3414 17.8862 26.7868 19.2941 26.7861H25.7273C27.1353 26.7868 28.4863 27.3414 29.4882 28.3298C30.4901 29.3182 31.0622 30.661 31.0808 32.0677C28.7293 34.1849 25.6761 35.3567 22.5107 35.3567C19.3453 35.3567 16.2922 34.1849 13.9407 32.0677Z" fill="#DADADA"/>
</svg>
